<?xml version="1.0" encoding="iso-8859-1"?>
<!-- Uploaded to: SVG Repo, www.svgrepo.com, Generator: SVG Repo Mixer Tools -->
<svg height="800px" width="800px" version="1.1" id="Layer_1" xmlns="http://www.w3.org/2000/svg" xmlns:xlink="http://www.w3.org/1999/xlink" 
	 viewBox="0 0 512 512" xml:space="preserve">
<path style="fill:#FFFFFF;" d="M51.2,371.448h409.6c17.2,0,31.2-14,31.2-31.2V67.552c0-17.2-14-31.2-31.2-31.2H51.2
	c-17.2,0-31.2,14-31.2,31.2v272.696C20,357.448,34,371.448,51.2,371.448z M186.632,101.56l177.264,102.344L186.632,306.24V101.56z"
	/>
<path style="fill:#DB2B42;" d="M51.2,391.448h409.6c28.16,0,51.2-23.04,51.2-51.2V67.552c0-28.16-23.04-51.2-51.2-51.2H51.2
	c-28.16,0-51.2,23.04-51.2,51.2v272.696C0,368.408,23.04,391.448,51.2,391.448z M20,67.552c0-17.2,14-31.2,31.2-31.2h409.6
	c17.2,0,31.2,14,31.2,31.2v272.696c0,17.2-14,31.2-31.2,31.2H51.2c-17.2,0-31.2-14-31.2-31.2V67.552z"/>
<polygon style="fill:#2D2D2D;" points="186.632,101.56 186.632,306.24 363.896,203.896 "/>
<g>
	<path style="fill:#8AD5DD;" d="M158.728,460.688c0,3.504-0.672,6.816-1.624,10H512v-20H157.104
		C158.056,453.88,158.728,457.192,158.728,460.688z"/>
	<path style="fill:#8AD5DD;" d="M90.432,450.688H0v20h90.432c-0.96-3.192-1.624-6.504-1.624-10
		C88.808,457.192,89.472,453.88,90.432,450.688z"/>
</g>
<path style="fill:#DB2B42;" d="M157.104,450.688c-4.32-14.4-17.528-24.96-33.336-24.96s-29.016,10.56-33.336,24.96
	c-0.96,3.184-1.624,6.496-1.624,10c0,3.504,0.672,6.816,1.624,10c4.32,14.4,17.528,24.96,33.336,24.96s29.008-10.56,33.336-24.96
	c0.96-3.192,1.624-6.504,1.624-10C158.728,457.192,158.056,453.88,157.104,450.688z"/>
</svg>